<svg width="32" height="32" viewBox="0 0 32 32" fill="none" xmlns="http://www.w3.org/2000/svg">
<g clip-path="url(#clip0_1_332)">
<path fill-rule="evenodd" clip-rule="evenodd" d="M16.9427 20.9427C16.6926 21.1927 16.3535 21.3331 16 21.3331C15.6464 21.3331 15.3074 21.1927 15.0573 20.9427L7.51466 13.4001C7.38731 13.2771 7.28573 13.1299 7.21585 12.9673C7.14598 12.8046 7.10919 12.6296 7.10766 12.4526C7.10612 12.2755 7.13985 12.1 7.20689 11.9361C7.27394 11.7723 7.37294 11.6234 7.49813 11.4982C7.62332 11.373 7.77219 11.274 7.93605 11.207C8.09991 11.1399 8.27549 11.1062 8.45252 11.1077C8.62956 11.1093 8.80452 11.146 8.9672 11.2159C9.12987 11.2858 9.27699 11.3874 9.39999 11.5147L16 18.1147L22.6 11.5147C22.8515 11.2718 23.1883 11.1374 23.5379 11.1405C23.8875 11.1435 24.2219 11.2837 24.4691 11.531C24.7163 11.7782 24.8565 12.1126 24.8596 12.4622C24.8626 12.8118 24.7282 13.1486 24.4853 13.4001L16.9427 20.9427Z" fill="black"/>
</g>
<defs>
<clipPath id="clip0_1_332">
<rect width="32" height="32" fill="white"/>
</clipPath>
</defs>
</svg>
