<svg width="48" height="48" viewBox="0 0 48 48" fill="none" xmlns="http://www.w3.org/2000/svg">
<circle cx="24" cy="24" r="23.5" transform="matrix(-1 0 0 1 48 0)" fill="#F5EEE6" stroke="black"/>
<g clip-path="url(#clip0_1_329)">
<path fill-rule="evenodd" clip-rule="evenodd" d="M19.0573 23.0573C18.8074 23.3074 18.667 23.6465 18.667 24C18.667 24.3536 18.8074 24.6926 19.0573 24.9427L26.6 32.4853C26.723 32.6127 26.8701 32.7143 27.0328 32.7841C27.1955 32.854 27.3704 32.8908 27.5475 32.8923C27.7245 32.8939 27.9001 32.8601 28.0639 32.7931C28.2278 32.7261 28.3767 32.6271 28.5019 32.5019C28.6271 32.3767 28.7261 32.2278 28.7931 32.0639C28.8601 31.9001 28.8939 31.7245 28.8923 31.5475C28.8908 31.3704 28.854 31.1955 28.7841 31.0328C28.7143 30.8701 28.6127 30.723 28.4853 30.6L21.8853 24L28.4853 17.4C28.7282 17.1485 28.8626 16.8117 28.8596 16.4621C28.8565 16.1125 28.7163 15.7781 28.4691 15.5309C28.2219 15.2837 27.8875 15.1435 27.5379 15.1404C27.1883 15.1374 26.8515 15.2718 26.6 15.5147L19.0573 23.0573Z" fill="black"/>
</g>
<defs>
<clipPath id="clip0_1_329">
<rect width="32" height="32" fill="white" transform="matrix(0 -1 -1 0 40 40)"/>
</clipPath>
</defs>
</svg>
