<svg width="48" height="48" viewBox="0 0 48 48" fill="none" xmlns="http://www.w3.org/2000/svg">
<circle cx="24" cy="24" r="23.5" fill="#F5EEE6" stroke="black"/>
<g clip-path="url(#clip0_1_326)">
<path fill-rule="evenodd" clip-rule="evenodd" d="M28.9427 23.0573C29.1926 23.3074 29.3331 23.6465 29.3331 24C29.3331 24.3536 29.1926 24.6926 28.9427 24.9427L21.4 32.4853C21.277 32.6127 21.1299 32.7143 20.9672 32.7841C20.8045 32.854 20.6296 32.8908 20.4525 32.8923C20.2755 32.8939 20.0999 32.8601 19.9361 32.7931C19.7722 32.7261 19.6233 32.6271 19.4981 32.5019C19.373 32.3767 19.2739 32.2278 19.2069 32.0639C19.1399 31.9001 19.1061 31.7245 19.1077 31.5475C19.1092 31.3704 19.146 31.1955 19.2159 31.0328C19.2857 30.8701 19.3873 30.723 19.5147 30.6L26.1147 24L19.5147 17.4C19.2718 17.1485 19.1374 16.8117 19.1404 16.4621C19.1435 16.1125 19.2837 15.7781 19.5309 15.5309C19.7781 15.2837 20.1125 15.1435 20.4621 15.1404C20.8117 15.1374 21.1485 15.2718 21.4 15.5147L28.9427 23.0573Z" fill="black"/>
</g>
<defs>
<clipPath id="clip0_1_326">
<rect width="32" height="32" fill="white" transform="matrix(0 -1 1 0 8 40)"/>
</clipPath>
</defs>
</svg>
